<!-- <svg xmlns="http://www.w3.org/2000/svg" viewBox="0 0 841.9 595.3">
    <g fill="#61DAFB">
        <path d="M666.3 296.5c0-32.5-40.7-63.3-103.1-82.4 14.4-63.6 8-114.2-20.2-130.4-6.5-3.8-14.1-5.6-22.4-5.6v22.3c4.6 0 8.3.9 11.4 2.6 13.6 7.8 19.5 37.5 14.9 75.7-1.1 9.4-2.9 19.3-5.1 29.4-19.6-4.8-41-8.5-63.5-10.9-13.5-18.5-27.5-35.3-41.6-50 32.6-30.3 63.2-46.9 84-46.9V78c-27.5 0-63.5 19.6-99.9 53.6-36.4-33.8-72.4-53.2-99.9-53.2v22.3c20.7 0 51.4 16.5 84 46.6-14 14.7-28 31.4-41.3 49.9-22.6 2.4-44 6.1-63.6 11-2.3-10-4-19.7-5.2-29-4.7-38.2 1.1-67.9 14.6-75.8 3-1.8 6.9-2.6 11.5-2.6V78.5c-8.4 0-16 1.8-22.6 5.6-28.1 16.2-34.4 66.7-19.9 130.1-62.2 19.2-102.7 49.9-102.7 82.3 0 32.5 40.7 63.3 103.1 82.4-14.4 63.6-8 114.2 20.2 130.4 6.5 3.8 14.1 5.6 22.5 5.6 27.5 0 63.5-19.6 99.9-53.6 36.4 33.8 72.4 53.2 99.9 53.2 8.4 0 16-1.8 22.6-5.6 28.1-16.2 34.4-66.7 19.9-130.1 62-19.1 102.5-49.9 102.5-82.3zm-130.2-66.7c-3.7 12.9-8.3 26.2-13.5 39.5-4.1-8-8.4-16-13.1-24-4.6-8-9.5-15.8-14.4-23.4 14.2 2.1 27.9 4.7 41 7.9zm-45.8 106.5c-7.8 13.5-15.8 26.3-24.1 38.2-14.9 1.3-30 2-45.2 2-15.1 0-30.2-.7-45-1.9-8.3-11.9-16.4-24.6-24.2-38-7.6-13.1-14.5-26.4-20.8-39.8 6.2-13.4 13.2-26.8 20.7-39.9 7.8-13.5 15.8-26.3 24.1-38.2 14.9-1.3 30-2 45.2-2 15.1 0 30.2.7 45 1.9 8.3 11.9 16.4 24.6 24.2 38 7.6 13.1 14.5 26.4 20.8 39.8-6.3 13.4-13.2 26.8-20.7 39.9zm32.3-13c5.4 13.4 10 26.8 13.8 39.8-13.1 3.2-26.9 5.9-41.2 8 4.9-7.7 9.8-15.6 14.4-23.7 4.6-8 8.9-16.1 13-24.1zM421.2 430c-9.3-9.6-18.6-20.3-27.8-32 9 .4 18.2.7 27.5.7 9.4 0 18.7-.2 27.8-.7-9 11.7-18.3 22.4-27.5 32zm-74.4-58.9c-14.2-2.1-27.9-4.7-41-7.9 3.7-12.9 8.3-26.2 13.5-39.5 4.1 8 8.4 16 13.1 24 4.7 8 9.5 15.8 14.4 23.4zM420.7 163c9.3 9.6 18.6 20.3 27.8 32-9-.4-18.2-.7-27.5-.7-9.4 0-18.7.2-27.8.7 9-11.7 18.3-22.4 27.5-32zm-74 58.9c-4.9 7.7-9.8 15.6-14.4 23.7-4.6 8-8.9 16-13 24-5.4-13.4-10-26.8-13.8-39.8 13.1-3.1 26.9-5.8 41.2-7.9zm-90.5 125.2c-35.4-15.1-58.3-34.9-58.3-50.6 0-15.7 22.9-35.6 58.3-50.6 8.6-3.7 18-7 27.7-10.1 5.7 19.6 13.2 40 22.5 60.9-9.2 20.8-16.6 41.1-22.2 60.6-9.9-3.1-19.3-6.5-28-10.2zM310 490c-13.6-7.8-19.5-37.5-14.9-75.7 1.1-9.4 2.9-19.3 5.1-29.4 19.6 4.8 41 8.5 63.5 10.9 13.5 18.5 27.5 35.3 41.6 50-32.6 30.3-63.2 46.9-84 46.9-4.5-.1-8.3-1-11.3-2.7zm237.2-76.2c4.7 38.2-1.1 67.9-14.6 75.8-3 1.8-6.9 2.6-11.5 2.6-20.7 0-51.4-16.5-84-46.6 14-14.7 28-31.4 41.3-49.9 22.6-2.4 44-6.1 63.6-11 2.3 10.1 4.1 19.8 5.2 29.1zm38.5-66.7c-8.6 3.7-18 7-27.7 10.1-5.7-19.6-13.2-40-22.5-60.9 9.2-20.8 16.6-41.1 22.2-60.6 9.9 3.1 19.3 6.5 28.1 10.2 35.4 15.1 58.3 34.9 58.3 50.6-.1 15.7-23 35.6-58.4 50.6zM320.8 78.4z"/>
        <circle cx="420.9" cy="296.5" r="45.7"/>
        <path d="M520.5 78.1z"/>
    </g>
</svg> -->



<svg PUBLIC "-//W3C//DTD SVG 20010904//EN"
 "http://www.w3.org/TR/2001/REC-SVG-20010904/DTD/svg10.dtd">
    <g fill="#61DAFB">
        <path d="M3712 9987 c-18 -9 -72 -114 -209 -407 -102 -217 -317 -676 -478
-1020 -359 -768 -1389 -2965 -1802 -3845 -168 -357 -325 -692 -349 -744 l-44
-94 0 -571 0 -571 1368 -1367 c1475 -1476 1389 -1396 1447 -1345 l25 22 0
1158 0 1157 75 0 75 0 0 -1145 c0 -1005 2 -1150 15 -1175 18 -35 54 -47 93
-31 15 7 639 623 1385 1369 l1357 1357 0 568 0 568 -1426 3042 c-925 1974
-1434 3050 -1450 3065 -28 25 -48 27 -82 9z m561 -1362 c579 -1237 981 -2094
1401 -2990 157 -335 283 -612 278 -616 -4 -3 -331 -170 -728 -370 l-721 -364
-54 53 c-104 103 -240 179 -404 228 -121 35 -337 45 -468 20 -191 -36 -356
-118 -485 -240 l-77 -72 -732 370 c-402 204 -735 374 -738 378 -4 3 126 289
288 635 162 345 446 950 630 1343 184 393 525 1120 757 1615 232 495 445 950
473 1012 29 61 55 108 58 105 4 -4 238 -502 522 -1107z m2052 -4379 l177 -379
-1258 -1258 c-693 -693 -1261 -1259 -1264 -1259 -3 0 -4 372 -2 828 l2 828 56
12 c81 19 199 72 280 124 251 163 385 410 372 688 l-5 106 721 365 c686 347
722 364 732 344 7 -11 92 -190 189 -399z m-4212 45 l729 -368 2 -134 c2 -107
7 -148 25 -204 81 -252 283 -449 559 -545 l92 -33 0 -831 0 -831 -1260 1260
c-786 786 -1259 1266 -1257 1275 11 40 363 780 372 780 6 0 338 -166 738 -369z
m1407 -3596 l0 -430 -1270 1270 -1270 1270 0 430 0 430 1270 -1270 1270 -1270
0 -430z m2992 2532 l-2 -432 -1265 -1265 -1265 -1265 0 430 0 430 1267 1267
c698 698 1268 1268 1268 1268 0 0 -1 -195 -3 -433z"/>
<path d="M321 1654 c-21 -26 -21 -33 -21 -749 0 -716 0 -723 21 -749 l20 -26
588 0 588 0 21 23 22 23 0 726 c0 719 0 726 -21 752 l-20 26 -589 0 -589 0
-20 -26z m1089 -454 l0 -330 -480 0 -480 0 0 330 0 330 480 0 480 0 0 -330z
m-10 -702 l0 -218 -470 0 -470 0 0 218 0 217 470 0 470 0 0 -217z"/>
<path d="M5960 1660 c-20 -20 -20 -33 -20 -755 0 -722 0 -735 20 -755 20 -20
33 -20 608 -20 586 0 589 0 608 21 18 20 19 47 19 756 l0 735 -24 19 c-22 18
-47 19 -607 19 -571 0 -584 0 -604 -20z m1080 -460 l0 -330 -475 0 -475 0 0
330 0 330 475 0 475 0 0 -330z m0 -702 l0 -218 -475 0 -475 0 0 218 0 217 475
0 475 0 0 -217z"/>
</g>
</svg>



