<?xml version="1.0" standalone="no"?>
<!DOCTYPE svg PUBLIC "-//W3C//DTD SVG 20010904//EN"
 "http://www.w3.org/TR/2001/REC-SVG-20010904/DTD/svg10.dtd">
<svg version="1.0" xmlns="http://www.w3.org/2000/svg"
 width="750.000000pt" height="1000.000000pt" viewBox="0 0 750.000000 1000.000000"
 preserveAspectRatio="xMidYMid meet">
<metadata>
Created by potrace 1.16, written by Peter Selinger 2001-2019
</metadata>
<g transform="translate(0.000000,1000.000000) scale(0.100000,-0.100000)"
fill="#000000" stroke="none">
<path d="M3712 9987 c-18 -9 -72 -114 -209 -407 -102 -217 -317 -676 -478
-1020 -359 -768 -1389 -2965 -1802 -3845 -168 -357 -325 -692 -349 -744 l-44
-94 0 -571 0 -571 1368 -1367 c1475 -1476 1389 -1396 1447 -1345 l25 22 0
1158 0 1157 75 0 75 0 0 -1145 c0 -1005 2 -1150 15 -1175 18 -35 54 -47 93
-31 15 7 639 623 1385 1369 l1357 1357 0 568 0 568 -1426 3042 c-925 1974
-1434 3050 -1450 3065 -28 25 -48 27 -82 9z m561 -1362 c579 -1237 981 -2094
1401 -2990 157 -335 283 -612 278 -616 -4 -3 -331 -170 -728 -370 l-721 -364
-54 53 c-104 103 -240 179 -404 228 -121 35 -337 45 -468 20 -191 -36 -356
-118 -485 -240 l-77 -72 -732 370 c-402 204 -735 374 -738 378 -4 3 126 289
288 635 162 345 446 950 630 1343 184 393 525 1120 757 1615 232 495 445 950
473 1012 29 61 55 108 58 105 4 -4 238 -502 522 -1107z m2052 -4379 l177 -379
-1258 -1258 c-693 -693 -1261 -1259 -1264 -1259 -3 0 -4 372 -2 828 l2 828 56
12 c81 19 199 72 280 124 251 163 385 410 372 688 l-5 106 721 365 c686 347
722 364 732 344 7 -11 92 -190 189 -399z m-4212 45 l729 -368 2 -134 c2 -107
7 -148 25 -204 81 -252 283 -449 559 -545 l92 -33 0 -831 0 -831 -1260 1260
c-786 786 -1259 1266 -1257 1275 11 40 363 780 372 780 6 0 338 -166 738 -369z
m1407 -3596 l0 -430 -1270 1270 -1270 1270 0 430 0 430 1270 -1270 1270 -1270
0 -430z m2992 2532 l-2 -432 -1265 -1265 -1265 -1265 0 430 0 430 1267 1267
c698 698 1268 1268 1268 1268 0 0 -1 -195 -3 -433z"/>
<path d="M321 1654 c-21 -26 -21 -33 -21 -749 0 -716 0 -723 21 -749 l20 -26
588 0 588 0 21 23 22 23 0 726 c0 719 0 726 -21 752 l-20 26 -589 0 -589 0
-20 -26z m1089 -454 l0 -330 -480 0 -480 0 0 330 0 330 480 0 480 0 0 -330z
m-10 -702 l0 -218 -470 0 -470 0 0 218 0 217 470 0 470 0 0 -217z"/>
<path d="M5960 1660 c-20 -20 -20 -33 -20 -755 0 -722 0 -735 20 -755 20 -20
33 -20 608 -20 586 0 589 0 608 21 18 20 19 47 19 756 l0 735 -24 19 c-22 18
-47 19 -607 19 -571 0 -584 0 -604 -20z m1080 -460 l0 -330 -475 0 -475 0 0
330 0 330 475 0 475 0 0 -330z m0 -702 l0 -218 -475 0 -475 0 0 218 0 217 475
0 475 0 0 -217z"/>
</g>
</svg>
